<svg width="200" height="200" viewBox="0 0 200 200" fill="none" xmlns="http://www.w3.org/2000/svg">
  <defs>
    <linearGradient id="bg" x1="0%" y1="0%" x2="100%" y2="100%">
      <stop offset="0%" stop-color="#5ed29c"/>
      <stop offset="100%" stop-color="#6366f1"/>
    </linearGradient>
    <linearGradient id="shine" x1="0%" y1="0%" x2="100%" y2="100%">
      <stop offset="0%" stop-color="white" stop-opacity="0.25"/>
      <stop offset="100%" stop-color="white" stop-opacity="0"/>
    </linearGradient>
  </defs>
  <rect width="200" height="200" rx="40" fill="url(#bg)"/>
  <g transform="translate(60,55)">
    <path d="M20 90V15L60 90V15" stroke="#070b0a" stroke-width="8" stroke-linecap="round" stroke-linejoin="round"/>
    <path d="M23 90V15L63 90V15" stroke="white" stroke-width="7" stroke-linecap="round" stroke-linejoin="round" opacity="0.15" transform="translate(2,0)"/>
    <circle cx="20" cy="38" r="4" fill="#070b0a"/>
    <circle cx="20" cy="38" r="6.5" fill="none" stroke="white" stroke-width="1" opacity="0.3"/>
    <circle cx="60" cy="75" r="4" fill="#070b0a"/>
    <circle cx="60" cy="75" r="6.5" fill="none" stroke="white" stroke-width="1" opacity="0.3"/>
    <line x1="20" y1="15" x2="60" y2="90" stroke="#070b0a" stroke-width="1.5" stroke-dasharray="5 3" opacity="0.35"/>
    <circle cx="35" cy="55" r="2.5" fill="white" opacity="0.2"/>
    <circle cx="48" cy="72" r="2.5" fill="white" opacity="0.2"/>
    <line x1="20" y1="38" x2="38" y2="59" stroke="white" stroke-width="1" opacity="0.12"/>
    <line x1="38" y1="59" x2="60" y2="75" stroke="white" stroke-width="1" opacity="0.12"/>
  </g>
  <rect width="200" height="200" rx="40" fill="url(#shine)"/>
</svg>
